Coordinates
version=1
nRows=5
nColumns=40
inDegrees=yes

Units are S.I. units (second, meters, Newtons, ...)
Angles are in degrees.

endheader
time	pelvis_tilt	pelvis_list	pelvis_rotation	pelvis_tx	pelvis_ty	pelvis_tz	hip_flexion_r	hip_adduction_r	hip_rotation_r	knee_angle_r	knee_angle_r_beta	ankle_angle_r	subtalar_angle_r	mtp_angle_r	hip_flexion_l	hip_adduction_l	hip_rotation_l	knee_angle_l	knee_angle_l_beta	ankle_angle_l	subtalar_angle_l	mtp_angle_l	lumbar_extension	lumbar_bending	lumbar_rotation	arm_flex_r	arm_add_r	arm_rot_r	elbow_flex_r	pro_sup_r	wrist_flex_r	wrist_dev_r	arm_flex_l	arm_add_l	arm_rot_l	elbow_flex_l	pro_sup_l	wrist_flex_l	wrist_dev_l
      9.75000000	     -1.26307766	     -5.88971727	      2.40177035	      0.90456025	      0.93432142	      0.50640293	      7.18748927	      5.59471356	    -18.75283097	     12.51192230	     12.51192230	      9.43493611	      3.46409596	     -7.16560972	     29.25103242	    -13.73837709	     -2.65612885	     39.68383925	     39.68383925	     12.35036067	    -18.59404435	     16.07326790	     -9.78379511	      8.09259554	      5.43496733	     24.71829316	    -18.12084200	     -6.53994992	     50.24130806	     45.65903771	      0.00000000	      0.00000000	      2.46967303	     -5.91912334	     -2.30482159	     29.85540077	     46.52145659	      0.00000000	      0.00000000
      9.76200000	     -1.36995313	     -5.78758008	      2.65548857	      0.90376291	      0.93421548	      0.50593048	      6.68669539	      5.53937576	    -18.78922296	     12.19711876	     12.19711876	      9.71089436	      3.41663905	     -7.22315588	     29.46211543	    -13.03704974	     -2.20777579	     36.26625616	     36.26625616	     11.69992510	    -17.79739954	     16.15137434	     -9.64193434	      7.99503417	      5.26996532	     26.39113872	    -18.21669442	     -6.74970156	     51.61997048	     45.62661735	      0.00000000	      0.00000000	      1.14372557	     -5.97990677	     -2.31409164	     28.96976637	     46.49319206	      0.00000000	      0.00000000
      9.77400000	     -1.43624765	     -5.76239634	      2.92292621	      0.90298469	      0.93410177	      0.50538435	      6.09268170	      5.56982033	    -18.94918012	     11.79178909	     11.79178909	      9.94831632	      3.57158290	     -7.33382288	     29.56829303	    -12.46532644	     -1.81953269	     32.86490636	     32.86490636	     10.92208052	    -16.40889909	     15.53144488	     -9.57101811	      8.01948759	      4.92728366	     28.02599359	    -18.14780551	     -6.96175919	     53.49211929	     45.57607842	      0.00000000	      0.00000000	     -0.15690471	     -6.07194550	     -2.32929036	     27.88964001	     46.46579995	      0.00000000	      0.00000000
      9.78600000	     -1.51431110	     -5.77434470	      3.18064527	      0.90225338	      0.93389956	      0.50479351	      5.47266171	      5.64881278	    -19.15279761	     11.31255633	     11.31255633	     10.15594281	      3.82963587	     -7.48374289	     29.63825365	    -12.02097707	     -1.64590653	     29.55830284	     29.55830284	     10.09822158	    -14.30521434	     14.28617902	     -9.50344835	      8.05206103	      4.68408153	     29.44299982	    -18.14310060	     -7.20265604	     55.67448276	     45.51512240	      0.00000000	      0.00000000	     -1.33571697	     -6.12025367	     -2.35861008	     26.83119714	     46.44244569	      0.00000000	      0.00000000
      9.79800000	     -1.64670806	     -5.89129764	      3.40787389	      0.90158544	      0.93345206	      0.50418343	      4.88151658	      5.85085937	    -19.34812904	     10.75912018	     10.75912018	     10.24971408	      4.10607487	     -7.94334022	     29.61035179	    -11.73177970	     -1.67686204	     26.08908750	     26.08908750	      7.80202328	    -12.22860787	      9.22466319	     -9.40612685	      8.21635301	      5.39299408	     29.51192264	    -18.94772335	     -7.94998172	     59.88817127	     45.40182870	      0.00000000	      0.00000000	     -1.84360638	     -5.97867281	     -2.52603163	     25.48107282	     46.42546388	      0.00000000	      0.00000000
